HIERARCHY
ROOT Hips
{
    OFFSET 0.000000 0.000000 0.000000
    CHANNELS 6 Xposition Yposition Zposition Zrotation Yrotation Xrotation
    JOINT LeftUpLeg
    {
        OFFSET 7.693656 -10.129610 4.737288
        CHANNELS 3 Zrotation Yrotation Xrotation
        JOINT LeftLeg
        {
            OFFSET 13.818113 -37.964970 0.000000
            CHANNELS 3 Zrotation Yrotation Xrotation
            JOINT LeftFoot
            {
                OFFSET 14.462082 -39.734261 0.000000
                CHANNELS 3 Zrotation Yrotation Xrotation
                JOINT LeftToeBase
                {
                    OFFSET 0.889783 -2.444646 13.109402
                    CHANNELS 3 Zrotation Yrotation Xrotation
                    End Site
                    {
                        OFFSET 0.000000 0.000000 0.000000
                    }
                }
            }
        }
    }
    JOINT RightUpLeg
    {
        OFFSET -7.368877 -10.129610 4.737288
        CHANNELS 3 Zrotation Yrotation Xrotation
        JOINT RightLeg
        {
            OFFSET -14.351057 -39.429237 0.000000
            CHANNELS 3 Zrotation Yrotation Xrotation
            JOINT RightFoot
            {
                OFFSET -14.496286 -39.828186 0.000000
                CHANNELS 3 Zrotation Yrotation Xrotation
                JOINT RightToeBase
                {
                    OFFSET -0.929802 -2.554599 13.338564
                    CHANNELS 3 Zrotation Yrotation Xrotation
                    End Site
                    {
                        OFFSET 0.000000 0.000000 0.000000
                    }
                }
            }
        }
    }
    JOINT Spine
    {
        OFFSET 0.159567 11.489684 -1.091514
        CHANNELS 3 Zrotation Yrotation Xrotation
        JOINT Spine1
        {
            OFFSET 0.320150 11.564529 -0.241298
            CHANNELS 3 Zrotation Yrotation Xrotation
            JOINT Neck1
            {
                OFFSET -0.305757 9.856478 0.970950
                CHANNELS 3 Zrotation Yrotation Xrotation
                JOINT Head
                {
                    OFFSET 0.587413 9.941821 -0.699736
                    CHANNELS 3 Zrotation Yrotation Xrotation
                    End Site
                    {
                        OFFSET 0.000000 0.000000 0.000000
                    }
                }
            }
            JOINT LeftShoulder
            {
                OFFSET 0.000000 0.000000 0.000000
                CHANNELS 3 Zrotation Yrotation Xrotation
                JOINT LeftArm
                {
                    OFFSET 18.978788 6.778303 -1.756594
                    CHANNELS 3 Zrotation Yrotation Xrotation
                    JOINT LeftForeArm
                    {
                        OFFSET 28.126045 -0.000000 -0.000000
                        CHANNELS 3 Zrotation Yrotation Xrotation
                        JOINT LeftHand
                        {
                            OFFSET 19.662607 -0.000000 -0.000000
                            CHANNELS 3 Zrotation Yrotation Xrotation
                            End Site
                            {
                                OFFSET 0.000000 0.000000 0.000000
                            }
                        }
                    }
                }
            }
            JOINT RightShoulder
            {
                OFFSET 0.000000 0.000000 0.000000
                CHANNELS 3 Zrotation Yrotation Xrotation
                JOINT RightArm
                {
                    OFFSET -17.704226 7.755688 -2.284007
                    CHANNELS 3 Zrotation Yrotation Xrotation
                    JOINT RightForeArm
                    {
                        OFFSET -29.587381 -0.000000 -0.000000
                        CHANNELS 3 Zrotation Yrotation Xrotation
                        JOINT RightHand
                        {
                            OFFSET -19.440273 -0.000000 -0.000000
                            CHANNELS 3 Zrotation Yrotation Xrotation
                            End Site
                            {
                                OFFSET 0.000000 0.000000 0.000000
                            }
                        }
                    }
                }
            }
        }
    }
}
MOTION
Frames: 6
Frame Time: 0.016667
34.099678 98.459724 -0.095989 70.462311 88.935410 77.538460 -25.477646 11.558909 -2.030790 -3.203096 -1.048751 0.161942 -0.477988 -4.996287 -0.471573 -0.263100 0.000000 -28.287207 15.893790 -4.912741 -27.591356 0.734466 -2.608201 40.713669 -1.270526 -5.342698 -4.967903 -0.486500 0.000000 -26.628700 -1.840579 -5.083180 -7.005904 -7.081186 -2.600943 1.175171 7.258912 -12.312206 -7.790527 0.000000 0.000000 0.000000 -2.404105 9.730577 0.818359 -64.582329 -4.312612 20.911474 -2.564292 -40.116016 -0.004279 5.415121 0.371553 0.016131 19.405071 -8.306548 0.221273 68.347305 1.699237 4.180983 3.049319 31.248102 0.008373 0.348330 4.499012 0.011272 
35.392761 98.401718 -0.043648 73.039062 88.839211 80.375656 -25.447573 11.912599 -1.163449 -3.218208 -1.080572 -0.561049 -0.506883 -5.256136 -0.199653 -0.300100 0.000000 -29.267416 15.830871 -3.701332 -28.020647 0.923490 -2.329484 37.253880 -1.310812 -5.443588 -4.983394 -0.545000 -0.000001 -25.863907 -1.565081 -5.848665 -7.228815 -7.014222 -2.990783 1.232396 7.184422 -12.958697 -7.784619 0.000000 0.000000 0.000000 -2.138041 8.856617 0.823448 -63.991688 -5.858054 21.194660 -2.547031 -41.075775 -0.005438 5.608819 0.196379 0.007224 19.393719 -9.273222 0.210315 67.613129 1.128337 4.066086 3.028061 32.020874 0.008155 0.316244 4.343993 0.009658 
36.694019 98.325264 0.032664 74.943848 88.698692 82.531525 -25.421501 12.202270 -0.306821 -3.234799 -1.104122 -1.183122 -0.533331 -5.487684 0.087230 -0.337600 0.000000 -30.196001 15.816413 -2.774542 -28.430187 1.135479 -2.035913 33.626625 -1.274920 -5.172804 -4.741469 -0.600200 -0.000001 -26.010715 -1.375849 -6.608339 -7.448398 -6.951599 -3.374321 1.298133 7.153144 -13.635256 -7.797699 0.000000 0.000000 0.000000 -1.837229 8.045570 0.826541 -63.336113 -7.340401 21.269701 -2.530753 -42.049049 -0.006723 5.774099 0.077220 0.000613 19.426487 -10.257029 0.191087 66.907829 0.590825 3.928082 3.001743 32.817287 0.008010 0.253109 4.257226 0.006949 
38.007980 98.233658 0.131069 76.682404 88.532196 84.511940 -25.385523 12.403190 0.522807 -3.250272 -1.117302 -1.644601 -0.553884 -5.671477 0.317018 -0.369200 -0.000000 -31.076111 15.901916 -2.190837 -28.820728 1.379538 -1.724336 29.807119 -1.140800 -4.477568 -4.133879 -0.645900 -0.000000 -27.214510 -1.254772 -7.354678 -7.674729 -6.891943 -3.748850 1.357701 7.145773 -14.299920 -7.804639 0.000000 0.000000 0.000000 -1.495120 7.234855 0.828640 -62.648052 -8.684603 21.116165 -2.511688 -43.017223 -0.008100 5.907302 0.007162 -0.003806 19.464903 -11.217301 0.166865 66.289536 0.011144 3.605354 2.972683 33.617039 0.007958 0.165171 4.244051 0.003542 
39.337959 98.128326 0.250713 78.165024 88.349571 86.223450 -25.335491 12.513691 1.333883 -3.263144 -1.121310 -1.947123 -0.567308 -5.797755 0.458911 -0.390601 -0.000000 -32.009899 16.122099 -1.940152 -29.170334 1.661350 -1.391995 25.812210 -0.911782 -3.401296 -3.181858 -0.658400 0.000001 -29.123110 -1.189695 -8.079973 -7.901885 -6.830062 -4.110827 1.412489 7.153461 -14.957520 -7.810163 0.000000 0.000000 0.000000 -1.112001 6.428279 0.826891 -61.964222 -9.890126 20.762272 -2.488810 -43.939095 -0.009524 6.017533 -0.037580 -0.006933 19.472084 -12.159612 0.140279 65.800018 -0.606391 3.065719 2.943577 34.368793 0.007992 0.046596 4.295410 -0.000961 
40.685291 98.009491 0.391631 78.887375 88.145966 87.155991 -25.281565 12.539062 2.164270 -3.272746 -1.119444 -2.157333 -0.574039 -5.855348 0.549755 -0.402500 0.000000 -33.132500 16.471107 -1.931017 -29.440174 1.977866 -1.035424 21.706764 -0.614234 -2.051431 -2.043381 -0.607600 0.000000 -31.239799 -1.184119 -8.775436 -8.116335 -6.761359 -4.455414 1.465129 7.173477 -15.611304 -7.826166 0.000000 0.000000 0.000000 -0.690532 5.650806 0.819466 -61.312279 -10.971264 20.247145 -2.461997 -44.788963 -0.010962 6.118392 -0.079777 -0.010070 19.421061 -13.084018 0.115396 65.467979 -1.247211 2.320303 2.916114 35.038727 0.008074 -0.092893 4.378567 -0.006463 
